{"title":"The Mechanic *2011*[BluRay][1080p][ENG, POL]","uid":6611461,"size":13179545550,"categoryP":"video","categoryS":"hd___movies","magnet":"?xt=urn:btih:53d94729a627120354474a892dc70dafe85f3efd&amp;dn=The+Mechanic+%2A2011%2A%5BBluRay%5D%5B1080p%5D%5BENG%2C+POL%5D&amp;tr=udp%3A%2F%2Ftracker.openbittorrent.com%3A80&amp;tr=udp%3A%2F%2Fopen.demonii.com%3A1337&amp;tr=udp%3A%2F%2Ftracker.coppersurfer.tk%3A6969&amp;tr=udp%3A%2F%2Fexodus.desync.com%3A6969","seeders":0,"leechers":1,"uploader":"albedo040","files":1,"time":1313608680,"description":"The Mechanic *2011*[BluRay][1080p][ENG, POL]\n\nGeneral information:\nCountry: USA\nRelease: 13 January 2011\t\nGenre: Action, Crime, Thriller \nDirector: Simon West\nScreenplay: Richard Wenk, Lewis John Carlino\nOriginal Music: Mark Isham\nCinematography by: Eric Schmidt\nDuration: 1h 32mn\nLanguage: English, Polish\nSubtitles: English, Polish\nRating:  -  6.8/10\n8046 votes\n\nCast:\nJason Statham ...Arthur Bishop\nBen Foster ...\tSteve McKenna\nTony Goldwyn ...Dean\nDonald Sutherland ...Harry McKenna\nJeff Chase ...Burke\nMini Anden ...Sarah\nJames Logan ...Jorge Lara\nEddie J. Fernandez ...Lara's Guard (as Eddie Fernandez)\nJoshua Bridgewater ...Car Jacker\nJohn McConnell ...Vaughn\nChrista Campbell ...Kelly\nJoel Davis ...Husband\nMark Nutter ...Mr. Finch (as Mark Anthony Nutter)\nArdy Brent Carlson ...Bell Hop\nLara Grice ...Mrs. Finch\n\nPlot:\nFollows an elite hit man as he teaches his trade to an apprentice who has a connection to one of his previous victims.\n\nSpecifications:\nGeneral\nFormat                           : Matroska\nFormat version                   : Version 2\nOverall bit rate                 : 18.9 Mbps\n\nVideo\nFormat                           : AVC\nFormat/Info                      : Advanced Video Codec\nFormat profile                   : &lt;a class=&quot;__cf_email__&quot; href=&quot;/cdn-cgi/l/email-protection&quot; data-cfemail=&quot;96defff1fed6daa2b8a7&quot;&gt;[email&amp;#160;protected]&lt;/a&gt;&lt;script cf-hash='f9e31' type=&quot;text/javascript&quot;&gt;\n/* &lt;![CDATA[ */!function(){try{var t=&quot;currentScript&quot;in document?document.currentScript:function(){for(var t=document.getElementsByTagName(&quot;script&quot;),e=t.length;e--;)if(t[e].getAttribute(&quot;cf-hash&quot;))return t[e]}();if(t&amp;&amp;t.previousSibling){var e,r,n,i,c=t.previousSibling,a=c.getAttribute(&quot;data-cfemail&quot;);if(a){for(e=&quot;&quot;,r=parseInt(a.substr(0,2),16),n=2;a.length-n;n+=2)i=parseInt(a.substr(n,2),16)^r,e+=String.fromCharCode(i);e=document.createTextNode(e),c.parentNode.replaceChild(e,c)}}}catch(u){}}();/* ]]&gt; */&lt;/script&gt;\nFormat settings, CABAC           : Yes\nFormat settings, ReFrames        : 5 frames\nMuxing mode                      : Header stripping\nCodec ID                         : V_MPEG4/ISO/AVC\nDuration                         : 1h 32mn\nBit rate mode                    : Variable\nBit rate                         : 17.0 Mbps\nMaximum bit rate                 : 40.0 Mbps\nWidth                            : 1 920 pixels\nHeight                           : 800 pixels\nDisplay aspect ratio             : 2.40:1\nFrame rate                       : 23.976 fps\n\nAudio 1\nFormat                           : DTS\nFormat/Info                      : Digital Theater Systems\nMuxing mode                      : Header stripping\nCodec ID                         : A_DTS\nBit rate mode                    : Constant\nBit rate                         : 1 510 Kbps\nChannel(s)                       : 6 channels\nChannel positions                : Front: L C R, Side: L R, LFE\nSampling rate                    : 48.0 KHz\nBit depth                        : 24 bits\nCompression mode                 : Lossy\nStream size                      : 1 001 MiB (8%)\nTitle                            : English\nLanguage                         : English\n\nAudio 2\nFormat                           : AC-3\nFormat/Info                      : Audio Coding 3\nMode extension                   : CM (complete main)\nMuxing mode                      : Header stripping\nCodec ID                         : A_AC3\nBit rate mode                    : Constant\nBit rate                         : 448 Kbps\nChannel(s)                       : 6 channels\nChannel positions                : Front: L C R, Side: L R, LFE\nSampling rate                    : 48.0 KHz\nBit depth                        : 16 bits\nCompression mode                 : Lossy\nStream size                      : 297 MiB (2%)\nTitle                            : Polish\nLanguage                         : Polish\n\nText 1\nFormat                           : UTF-8\nCodec ID                         : S_TEXT/UTF8\nCodec ID/Info                    : UTF-8 Plain Text\nTitle                            : English\nLanguage                         : English\n\nText 2\nFormat                           : UTF-8\nCodec ID                         : S_TEXT/UTF8\nCodec ID/Info                    : UTF-8 Plain Text\nTitle                            : Polish\nLanguage                         : Polish\n","torrent":{"xt":"urn:btih:53d94729a627120354474a892dc70dafe85f3efd","amp;dn":"The+Mechanic+%2A2011%2A%5BBluRay%5D%5B1080p%5D%5BENG%2C+POL%5D","amp;tr":["udp%3A%2F%2Ftracker.openbittorrent.com%3A80","udp%3A%2F%2Fopen.demonii.com%3A1337","udp%3A%2F%2Ftracker.coppersurfer.tk%3A6969","udp%3A%2F%2Fexodus.desync.com%3A6969"],"infoHash":"53d94729a627120354474a892dc70dafe85f3efd","infoHashBuffer":{"type":"Buffer","data":[83,217,71,41,166,39,18,3,84,71,74,137,45,199,13,175,232,95,62,253]},"announce":[],"urlList":[]}}